<svg viewBox="0 0 1000 580" xmlns="http://www.w3.org/2000/svg" fill="none">
<defs>
  <pattern id="hatch" width="6" height="6" patternUnits="userSpaceOnUse" patternTransform="rotate(45)">
    <line x1="0" y1="0" x2="0" y2="6" stroke="#DED6C4" stroke-width="1"/>
  </pattern>
  <pattern id="dot" width="8" height="8" patternUnits="userSpaceOnUse">
    <circle cx="1" cy="1" r="0.6" fill="#8A8172"/>
  </pattern>
</defs>
      <rect x="22" y="22" width="956" height="536"
            fill="none" stroke="#B9B1A1" stroke-width="0.6"/>
      <path d="M 18 34 L 18 18 L 34 18" stroke="#25231B" stroke-width="0.9" fill="none"/>
      <path d="M 982 34 L 982 18 L 966 18" stroke="#25231B" stroke-width="0.9" fill="none"/>
      <path d="M 18 546 L 18 562 L 34 562" stroke="#25231B" stroke-width="0.9" fill="none"/>
      <path d="M 982 546 L 982 562 L 966 562" stroke="#25231B" stroke-width="0.9" fill="none"/>
    <line x1="250" y1="120" x2="250" y2="448" stroke="#25231B" stroke-width="2"/><line x1="720" y1="120" x2="720" y2="448" stroke="#25231B" stroke-width="2"/><text x="250" y="108" font-size="16" fill="#25231B"
        text-anchor="middle" font-family="Courier New, monospace" font-weight="bold"
        letter-spacing="1" font-style="normal">TUNNEL RAIL (GPU)</text><text x="720" y="108" font-size="16" fill="#25231B"
        text-anchor="middle" font-family="Courier New, monospace" font-weight="bold"
        letter-spacing="1" font-style="normal">PI RAIL (LOCAL FALLBACK)</text><text x="60" y="144" font-size="18" fill="#25231B"
        text-anchor="start" font-family="Courier New, monospace" font-weight="bold"
        letter-spacing="0" font-style="normal">STT</text><circle cx="250" cy="140" r="6" fill="#25231B"/><text x="262" y="144" font-size="14" fill="#25231B"
        text-anchor="start" font-family="Courier New, monospace" font-weight="normal"
        letter-spacing="0" font-style="normal">Whisper server</text><circle cx="720" cy="140" r="6" fill="none" stroke="#25231B" stroke-width="1.2" stroke-dasharray="2 2"/><text x="732" y="144" font-size="14" fill="#8A8172"
        text-anchor="start" font-family="Courier New, monospace" font-weight="normal"
        letter-spacing="0" font-style="normal">whisper.cpp on Pi</text><line x1="256" y1="140" x2="370" y2="140" stroke="#25231B" stroke-width="1.4"/><line x1="370" y1="140" x2="430" y2="122" stroke="#25231B" stroke-width="1.6"/><circle cx="370" cy="140" r="3" fill="#25231B"/><circle cx="430" cy="122" r="3" fill="#25231B"/><line x1="370" y1="140" x2="714" y2="140" stroke="#8A8172" stroke-width="0.7" stroke-dasharray="4 3"/><line x1="370" y1="140" x2="370" y2="480" stroke="#8A8172" stroke-width="0.5" stroke-dasharray="2 3"/><text x="60" y="202" font-size="18" fill="#25231B"
        text-anchor="start" font-family="Courier New, monospace" font-weight="bold"
        letter-spacing="0" font-style="normal">TTS</text><circle cx="250" cy="198" r="6" fill="#25231B"/><text x="262" y="202" font-size="14" fill="#25231B"
        text-anchor="start" font-family="Courier New, monospace" font-weight="normal"
        letter-spacing="0" font-style="normal">Orpheus vLLM</text><circle cx="720" cy="198" r="6" fill="none" stroke="#25231B" stroke-width="1.2" stroke-dasharray="2 2"/><text x="732" y="202" font-size="14" fill="#8A8172"
        text-anchor="start" font-family="Courier New, monospace" font-weight="normal"
        letter-spacing="0" font-style="normal">Piper local voice</text><line x1="256" y1="198" x2="370" y2="198" stroke="#25231B" stroke-width="1.4"/><line x1="370" y1="198" x2="430" y2="180" stroke="#25231B" stroke-width="1.6"/><circle cx="370" cy="198" r="3" fill="#25231B"/><circle cx="430" cy="180" r="3" fill="#25231B"/><line x1="370" y1="198" x2="714" y2="198" stroke="#8A8172" stroke-width="0.7" stroke-dasharray="4 3"/><line x1="370" y1="198" x2="370" y2="480" stroke="#8A8172" stroke-width="0.5" stroke-dasharray="2 3"/><text x="60" y="260" font-size="18" fill="#25231B"
        text-anchor="start" font-family="Courier New, monospace" font-weight="bold"
        letter-spacing="0" font-style="normal">DETECTOR</text><circle cx="250" cy="256" r="6" fill="#25231B"/><text x="262" y="260" font-size="14" fill="#25231B"
        text-anchor="start" font-family="Courier New, monospace" font-weight="normal"
        letter-spacing="0" font-style="normal">server YOLO11x</text><circle cx="720" cy="256" r="6" fill="none" stroke="#25231B" stroke-width="1.2" stroke-dasharray="2 2"/><text x="732" y="260" font-size="14" fill="#8A8172"
        text-anchor="start" font-family="Courier New, monospace" font-weight="normal"
        letter-spacing="0" font-style="normal">local YOLOv8-world</text><line x1="256" y1="256" x2="370" y2="256" stroke="#25231B" stroke-width="1.4"/><line x1="370" y1="256" x2="430" y2="238" stroke="#25231B" stroke-width="1.6"/><circle cx="370" cy="256" r="3" fill="#25231B"/><circle cx="430" cy="238" r="3" fill="#25231B"/><line x1="370" y1="256" x2="714" y2="256" stroke="#8A8172" stroke-width="0.7" stroke-dasharray="4 3"/><line x1="370" y1="256" x2="370" y2="480" stroke="#8A8172" stroke-width="0.5" stroke-dasharray="2 3"/><text x="60" y="318" font-size="18" fill="#25231B"
        text-anchor="start" font-family="Courier New, monospace" font-weight="bold"
        letter-spacing="0" font-style="normal">FACE EMBED</text><circle cx="250" cy="314" r="6" fill="#25231B"/><text x="262" y="318" font-size="14" fill="#25231B"
        text-anchor="start" font-family="Courier New, monospace" font-weight="normal"
        letter-spacing="0" font-style="normal">server ArcFace</text><circle cx="720" cy="314" r="6" fill="none" stroke="#25231B" stroke-width="1.2" stroke-dasharray="2 2"/><text x="732" y="318" font-size="14" fill="#8A8172"
        text-anchor="start" font-family="Courier New, monospace" font-weight="normal"
        letter-spacing="0" font-style="normal">local ArcFace ONNX</text><line x1="256" y1="314" x2="370" y2="314" stroke="#25231B" stroke-width="1.4"/><line x1="370" y1="314" x2="430" y2="296" stroke="#25231B" stroke-width="1.6"/><circle cx="370" cy="314" r="3" fill="#25231B"/><circle cx="430" cy="296" r="3" fill="#25231B"/><line x1="370" y1="314" x2="714" y2="314" stroke="#8A8172" stroke-width="0.7" stroke-dasharray="4 3"/><line x1="370" y1="314" x2="370" y2="480" stroke="#8A8172" stroke-width="0.5" stroke-dasharray="2 3"/><text x="60" y="376" font-size="18" fill="#25231B"
        text-anchor="start" font-family="Courier New, monospace" font-weight="bold"
        letter-spacing="0" font-style="normal">SPEAKER EMBED</text><circle cx="250" cy="372" r="6" fill="#25231B"/><text x="262" y="376" font-size="14" fill="#25231B"
        text-anchor="start" font-family="Courier New, monospace" font-weight="normal"
        letter-spacing="0" font-style="normal">server ECAPA</text><circle cx="720" cy="372" r="6" fill="none" stroke="#25231B" stroke-width="1.2" stroke-dasharray="2 2"/><text x="732" y="376" font-size="14" fill="#8A8172"
        text-anchor="start" font-family="Courier New, monospace" font-weight="normal"
        letter-spacing="0" font-style="normal">local ECAPA ONNX</text><line x1="256" y1="372" x2="370" y2="372" stroke="#25231B" stroke-width="1.4"/><line x1="370" y1="372" x2="430" y2="354" stroke="#25231B" stroke-width="1.6"/><circle cx="370" cy="372" r="3" fill="#25231B"/><circle cx="430" cy="354" r="3" fill="#25231B"/><line x1="370" y1="372" x2="714" y2="372" stroke="#8A8172" stroke-width="0.7" stroke-dasharray="4 3"/><line x1="370" y1="372" x2="370" y2="480" stroke="#8A8172" stroke-width="0.5" stroke-dasharray="2 3"/><text x="60" y="434" font-size="18" fill="#25231B"
        text-anchor="start" font-family="Courier New, monospace" font-weight="bold"
        letter-spacing="0" font-style="normal">OBJECT EMBED</text><circle cx="250" cy="430" r="6" fill="#25231B"/><text x="262" y="434" font-size="14" fill="#25231B"
        text-anchor="start" font-family="Courier New, monospace" font-weight="normal"
        letter-spacing="0" font-style="normal">server CLIP</text><circle cx="720" cy="430" r="6" fill="none" stroke="#25231B" stroke-width="1.2" stroke-dasharray="2 2"/><text x="732" y="434" font-size="14" fill="#8A8172"
        text-anchor="start" font-family="Courier New, monospace" font-weight="normal"
        letter-spacing="0" font-style="normal">local histogram</text><line x1="256" y1="430" x2="370" y2="430" stroke="#25231B" stroke-width="1.4"/><line x1="370" y1="430" x2="430" y2="412" stroke="#25231B" stroke-width="1.6"/><circle cx="370" cy="430" r="3" fill="#25231B"/><circle cx="430" cy="412" r="3" fill="#25231B"/><line x1="370" y1="430" x2="714" y2="430" stroke="#8A8172" stroke-width="0.7" stroke-dasharray="4 3"/><line x1="370" y1="430" x2="370" y2="480" stroke="#8A8172" stroke-width="0.5" stroke-dasharray="2 3"/><line x1="310" y1="480" x2="800" y2="480" stroke="#25231B" stroke-width="1.4"/><polyline points="800,480 850,472 900,472" stroke="#25231B" stroke-width="1.2" fill="none"/><text x="900" y="468" font-size="14" fill="#25231B"
        text-anchor="start" font-family="Courier New, monospace" font-weight="bold"
        letter-spacing="1" font-style="normal">DEGRADED FLAG → PERSONA PROMPT</text><text x="310" y="494" font-size="14" fill="#8A8172"
        text-anchor="start" font-family="Courier New, monospace" font-weight="normal"
        letter-spacing="0" font-style="italic">the robot knows its own state and can say so</text>
    <g transform="translate(520,420)">
      <rect x="0" y="0" width="460" height="130" fill="none" stroke="#25231B" stroke-width="1"/>
      <line x1="0" y1="30" x2="460" y2="30" stroke="#25231B" stroke-width="0.7"/>
      <line x1="0" y1="72" x2="460" y2="72" stroke="#25231B" stroke-width="0.7"/>
      <line x1="260" y1="30" x2="260" y2="130" stroke="#25231B" stroke-width="0.7"/>
      <text x="10" y="22" font-size="16" fill="#25231B"
        text-anchor="start" font-family="Courier New, monospace" font-weight="bold"
        letter-spacing="2" font-style="normal">ZEROBIONIC</text>
      <text x="450" y="22" font-size="14" fill="#8A8172"
        text-anchor="end" font-family="Courier New, monospace" font-weight="normal"
        letter-spacing="1" font-style="normal">AF-1 ASSISTIVE ROBOTICS</text>
      <text x="10" y="52" font-size="11" fill="#8A8172"
        text-anchor="start" font-family="Courier New, monospace" font-weight="normal"
        letter-spacing="1" font-style="normal">TITLE</text>
      <text x="10" y="66" font-size="16" fill="#25231B"
        text-anchor="start" font-family="Courier New, monospace" font-weight="bold"
        letter-spacing="1" font-style="normal">FALLBACK CHANGEOVER</text>
      <text x="10" y="92" font-size="11" fill="#8A8172"
        text-anchor="start" font-family="Courier New, monospace" font-weight="normal"
        letter-spacing="1" font-style="normal">DOC</text>
      <text x="10" y="106" font-size="14" fill="#25231B"
        text-anchor="start" font-family="Courier New, monospace" font-weight="normal"
        letter-spacing="0" font-style="normal">ZBR-AF1-SW-001</text>
      <text x="10" y="122" font-size="12" fill="#8A8172"
        text-anchor="start" font-family="Courier New, monospace" font-weight="normal"
        letter-spacing="0" font-style="normal">REV 0.1</text>
      <text x="270" y="52" font-size="11" fill="#8A8172"
        text-anchor="start" font-family="Courier New, monospace" font-weight="normal"
        letter-spacing="1" font-style="normal">FIGURE</text>
      <text x="270" y="66" font-size="21" fill="#25231B"
        text-anchor="start" font-family="Courier New, monospace" font-weight="bold"
        letter-spacing="2" font-style="normal">6</text>
      <text x="270" y="92" font-size="11" fill="#8A8172"
        text-anchor="start" font-family="Courier New, monospace" font-weight="normal"
        letter-spacing="1" font-style="normal">SHEET</text>
      <text x="270" y="106" font-size="14" fill="#25231B"
        text-anchor="start" font-family="Courier New, monospace" font-weight="normal"
        letter-spacing="0" font-style="normal">1 OF 1</text>
      <text x="270" y="122" font-size="12" fill="#8A8172"
        text-anchor="start" font-family="Courier New, monospace" font-weight="normal"
        letter-spacing="0" font-style="normal">SCALE N.T.S.</text>
    </g></svg>