<svg viewBox="0 0 1000 640" xmlns="http://www.w3.org/2000/svg" fill="none">
<defs>
  <pattern id="hatch" width="6" height="6" patternUnits="userSpaceOnUse" patternTransform="rotate(45)">
    <line x1="0" y1="0" x2="0" y2="6" stroke="#DED6C4" stroke-width="1"/>
  </pattern>
  <pattern id="dot" width="8" height="8" patternUnits="userSpaceOnUse">
    <circle cx="1" cy="1" r="0.6" fill="#8A8172"/>
  </pattern>
</defs>
      <rect x="22" y="22" width="956" height="596"
            fill="none" stroke="#B9B1A1" stroke-width="0.6"/>
      <path d="M 18 34 L 18 18 L 34 18" stroke="#25231B" stroke-width="0.9" fill="none"/>
      <path d="M 982 34 L 982 18 L 966 18" stroke="#25231B" stroke-width="0.9" fill="none"/>
      <path d="M 18 606 L 18 622 L 34 622" stroke="#25231B" stroke-width="0.9" fill="none"/>
      <path d="M 982 606 L 982 622 L 966 622" stroke="#25231B" stroke-width="0.9" fill="none"/>
    <line x1="190" y1="510" x2="190" y2="518" stroke="#25231B" stroke-width="1"/><text x="190" y="525" font-size="14" fill="#8A8172"
        text-anchor="middle" font-family="Courier New, monospace" font-weight="normal"
        letter-spacing="0" font-style="normal">0s</text><line x1="224.0909090909091" y1="510" x2="224.0909090909091" y2="514" stroke="#25231B" stroke-width="0.5"/><line x1="258.1818181818182" y1="510" x2="258.1818181818182" y2="514" stroke="#25231B" stroke-width="0.5"/><line x1="292.27272727272725" y1="510" x2="292.27272727272725" y2="514" stroke="#25231B" stroke-width="0.5"/><line x1="326.3636363636364" y1="510" x2="326.3636363636364" y2="514" stroke="#25231B" stroke-width="0.5"/><line x1="360.45454545454544" y1="510" x2="360.45454545454544" y2="518" stroke="#25231B" stroke-width="1"/><text x="360.45454545454544" y="525" font-size="14" fill="#8A8172"
        text-anchor="middle" font-family="Courier New, monospace" font-weight="normal"
        letter-spacing="0" font-style="normal">1s</text><line x1="394.5454545454545" y1="510" x2="394.5454545454545" y2="514" stroke="#25231B" stroke-width="0.5"/><line x1="428.6363636363636" y1="510" x2="428.6363636363636" y2="514" stroke="#25231B" stroke-width="0.5"/><line x1="462.7272727272727" y1="510" x2="462.7272727272727" y2="514" stroke="#25231B" stroke-width="0.5"/><line x1="496.8181818181818" y1="510" x2="496.8181818181818" y2="514" stroke="#25231B" stroke-width="0.5"/><line x1="530.9090909090909" y1="510" x2="530.9090909090909" y2="518" stroke="#25231B" stroke-width="1"/><text x="530.9090909090909" y="525" font-size="14" fill="#8A8172"
        text-anchor="middle" font-family="Courier New, monospace" font-weight="normal"
        letter-spacing="0" font-style="normal">2s</text><line x1="565" y1="510" x2="565" y2="514" stroke="#25231B" stroke-width="0.5"/><line x1="599.090909090909" y1="510" x2="599.090909090909" y2="514" stroke="#25231B" stroke-width="0.5"/><line x1="633.1818181818181" y1="510" x2="633.1818181818181" y2="514" stroke="#25231B" stroke-width="0.5"/><line x1="667.2727272727273" y1="510" x2="667.2727272727273" y2="514" stroke="#25231B" stroke-width="0.5"/><line x1="701.3636363636363" y1="510" x2="701.3636363636363" y2="518" stroke="#25231B" stroke-width="1"/><text x="701.3636363636363" y="525" font-size="14" fill="#8A8172"
        text-anchor="middle" font-family="Courier New, monospace" font-weight="normal"
        letter-spacing="0" font-style="normal">3s</text><line x1="735.4545454545454" y1="510" x2="735.4545454545454" y2="514" stroke="#25231B" stroke-width="0.5"/><line x1="769.5454545454545" y1="510" x2="769.5454545454545" y2="514" stroke="#25231B" stroke-width="0.5"/><line x1="803.6363636363636" y1="510" x2="803.6363636363636" y2="514" stroke="#25231B" stroke-width="0.5"/><line x1="837.7272727272726" y1="510" x2="837.7272727272726" y2="514" stroke="#25231B" stroke-width="0.5"/><line x1="871.8181818181818" y1="510" x2="871.8181818181818" y2="518" stroke="#25231B" stroke-width="1"/><text x="871.8181818181818" y="525" font-size="14" fill="#8A8172"
        text-anchor="middle" font-family="Courier New, monospace" font-weight="normal"
        letter-spacing="0" font-style="normal">4s</text><line x1="905.9090909090909" y1="510" x2="905.9090909090909" y2="514" stroke="#25231B" stroke-width="0.5"/><line x1="940" y1="510" x2="940" y2="514" stroke="#25231B" stroke-width="0.5"/><line x1="190" y1="510" x2="940" y2="510" stroke="#25231B" stroke-width="1"/><text x="565" y="540" font-size="14" fill="#8A8172"
        text-anchor="middle" font-family="Courier New, monospace" font-weight="normal"
        letter-spacing="2" font-style="normal">TIME FROM WAKE-WORD ACCEPT</text><line x1="190" y1="80" x2="462.7272727272727" y2="80" stroke="#25231B" stroke-width="1.2"/><line x1="190" y1="76" x2="190" y2="84" stroke="#25231B" stroke-width="1.2"/><line x1="462.7272727272727" y1="76" x2="462.7272727272727" y2="84" stroke="#25231B" stroke-width="1.2"/><text x="326.3636363636364" y="72" font-size="14" fill="#25231B"
        text-anchor="middle" font-family="Courier New, monospace" font-weight="bold"
        letter-spacing="1" font-style="normal">LISTENING</text><line x1="462.7272727272727" y1="80" x2="599.090909090909" y2="80" stroke="#25231B" stroke-width="1.2"/><line x1="462.7272727272727" y1="76" x2="462.7272727272727" y2="84" stroke="#25231B" stroke-width="1.2"/><line x1="599.090909090909" y1="76" x2="599.090909090909" y2="84" stroke="#25231B" stroke-width="1.2"/><text x="530.9090909090909" y="72" font-size="14" fill="#25231B"
        text-anchor="middle" font-family="Courier New, monospace" font-weight="bold"
        letter-spacing="1" font-style="normal">PAUSE (silence wait)</text><line x1="599.090909090909" y1="80" x2="769.5454545454545" y2="80" stroke="#25231B" stroke-width="1.2"/><line x1="599.090909090909" y1="76" x2="599.090909090909" y2="84" stroke="#25231B" stroke-width="1.2"/><line x1="769.5454545454545" y1="76" x2="769.5454545454545" y2="84" stroke="#25231B" stroke-width="1.2"/><text x="684.3181818181818" y="72" font-size="14" fill="#25231B"
        text-anchor="middle" font-family="Courier New, monospace" font-weight="bold"
        letter-spacing="1" font-style="normal">THINKING</text><line x1="769.5454545454545" y1="80" x2="940" y2="80" stroke="#25231B" stroke-width="1.2"/><line x1="769.5454545454545" y1="76" x2="769.5454545454545" y2="84" stroke="#25231B" stroke-width="1.2"/><line x1="940" y1="76" x2="940" y2="84" stroke="#25231B" stroke-width="1.2"/><text x="854.7727272727273" y="72" font-size="14" fill="#25231B"
        text-anchor="middle" font-family="Courier New, monospace" font-weight="bold"
        letter-spacing="1" font-style="normal">SPEAKING</text><line x1="180" y1="125" x2="940" y2="125" stroke="#B9B1A1" stroke-width="0.4" stroke-dasharray="1 3"/><text x="170" y="129" font-size="14" fill="#25231B"
        text-anchor="end" font-family="Courier New, monospace" font-weight="normal"
        letter-spacing="0" font-style="normal">MIC CAPTURE</text><line x1="190" y1="125" x2="940" y2="125" stroke="#25231B" stroke-width="2"/><line x1="190" y1="120" x2="190" y2="130" stroke="#25231B" stroke-width="2"/><line x1="940" y1="120" x2="940" y2="130" stroke="#25231B" stroke-width="2"/><line x1="180" y1="155" x2="940" y2="155" stroke="#B9B1A1" stroke-width="0.4" stroke-dasharray="1 3"/><text x="170" y="159" font-size="14" fill="#25231B"
        text-anchor="end" font-family="Courier New, monospace" font-weight="normal"
        letter-spacing="0" font-style="normal">ENDPOINTER</text><line x1="190" y1="155" x2="599.090909090909" y2="155" stroke="#25231B" stroke-width="2"/><line x1="190" y1="150" x2="190" y2="160" stroke="#25231B" stroke-width="2"/><line x1="599.090909090909" y1="150" x2="599.090909090909" y2="160" stroke="#25231B" stroke-width="2"/><line x1="180" y1="185" x2="940" y2="185" stroke="#B9B1A1" stroke-width="0.4" stroke-dasharray="1 3"/><text x="170" y="189" font-size="14" fill="#25231B"
        text-anchor="end" font-family="Courier New, monospace" font-weight="normal"
        letter-spacing="0" font-style="normal">STT-SPEC</text><line x1="462.7272727272727" y1="185" x2="599.090909090909" y2="185" stroke="#25231B" stroke-width="2"/><line x1="462.7272727272727" y1="180" x2="462.7272727272727" y2="190" stroke="#25231B" stroke-width="2"/><line x1="599.090909090909" y1="180" x2="599.090909090909" y2="190" stroke="#25231B" stroke-width="2"/><line x1="180" y1="215" x2="940" y2="215" stroke="#B9B1A1" stroke-width="0.4" stroke-dasharray="1 3"/><text x="170" y="219" font-size="14" fill="#25231B"
        text-anchor="end" font-family="Courier New, monospace" font-weight="normal"
        letter-spacing="0" font-style="normal">STT FINAL</text><line x1="599.090909090909" y1="215" x2="718.4090909090908" y2="215" stroke="#25231B" stroke-width="2"/><line x1="599.090909090909" y1="210" x2="599.090909090909" y2="220" stroke="#25231B" stroke-width="2"/><line x1="718.4090909090908" y1="210" x2="718.4090909090908" y2="220" stroke="#25231B" stroke-width="2"/><line x1="180" y1="245" x2="940" y2="245" stroke="#B9B1A1" stroke-width="0.4" stroke-dasharray="1 3"/><text x="170" y="249" font-size="14" fill="#25231B"
        text-anchor="end" font-family="Courier New, monospace" font-weight="normal"
        letter-spacing="0" font-style="normal">IDENTITY</text><line x1="599.090909090909" y1="245" x2="650.2272727272726" y2="245" stroke="#25231B" stroke-width="2"/><line x1="599.090909090909" y1="240" x2="599.090909090909" y2="250" stroke="#25231B" stroke-width="2"/><line x1="650.2272727272726" y1="240" x2="650.2272727272726" y2="250" stroke="#25231B" stroke-width="2"/><line x1="180" y1="275" x2="940" y2="275" stroke="#B9B1A1" stroke-width="0.4" stroke-dasharray="1 3"/><text x="170" y="279" font-size="14" fill="#25231B"
        text-anchor="end" font-family="Courier New, monospace" font-weight="normal"
        letter-spacing="0" font-style="normal">DIARIZE</text><line x1="599.090909090909" y1="275" x2="641.7045454545454" y2="275" stroke="#25231B" stroke-width="2"/><line x1="599.090909090909" y1="270" x2="599.090909090909" y2="280" stroke="#25231B" stroke-width="2"/><line x1="641.7045454545454" y1="270" x2="641.7045454545454" y2="280" stroke="#25231B" stroke-width="2"/><line x1="180" y1="305" x2="940" y2="305" stroke="#B9B1A1" stroke-width="0.4" stroke-dasharray="1 3"/><text x="170" y="309" font-size="14" fill="#25231B"
        text-anchor="end" font-family="Courier New, monospace" font-weight="normal"
        letter-spacing="0" font-style="normal">AFFECT</text><line x1="599.090909090909" y1="305" x2="636.590909090909" y2="305" stroke="#25231B" stroke-width="2"/><line x1="599.090909090909" y1="300" x2="599.090909090909" y2="310" stroke="#25231B" stroke-width="2"/><line x1="636.590909090909" y1="300" x2="636.590909090909" y2="310" stroke="#25231B" stroke-width="2"/><line x1="180" y1="335" x2="940" y2="335" stroke="#B9B1A1" stroke-width="0.4" stroke-dasharray="1 3"/><text x="170" y="339" font-size="14" fill="#25231B"
        text-anchor="end" font-family="Courier New, monospace" font-weight="normal"
        letter-spacing="0" font-style="normal">RECALL</text><line x1="599.090909090909" y1="335" x2="646.8181818181818" y2="335" stroke="#25231B" stroke-width="2"/><line x1="599.090909090909" y1="330" x2="599.090909090909" y2="340" stroke="#25231B" stroke-width="2"/><line x1="646.8181818181818" y1="330" x2="646.8181818181818" y2="340" stroke="#25231B" stroke-width="2"/><line x1="180" y1="365" x2="940" y2="365" stroke="#B9B1A1" stroke-width="0.4" stroke-dasharray="1 3"/><text x="170" y="369" font-size="14" fill="#25231B"
        text-anchor="end" font-family="Courier New, monospace" font-weight="normal"
        letter-spacing="0" font-style="normal">LLM STREAM</text><line x1="650.2272727272727" y1="365" x2="888.8636363636364" y2="365" stroke="#25231B" stroke-width="2"/><line x1="650.2272727272727" y1="360" x2="650.2272727272727" y2="370" stroke="#25231B" stroke-width="2"/><line x1="888.8636363636364" y1="360" x2="888.8636363636364" y2="370" stroke="#25231B" stroke-width="2"/><line x1="180" y1="395" x2="940" y2="395" stroke="#B9B1A1" stroke-width="0.4" stroke-dasharray="1 3"/><text x="170" y="399" font-size="14" fill="#25231B"
        text-anchor="end" font-family="Courier New, monospace" font-weight="normal"
        letter-spacing="0" font-style="normal">FILLER AUDIO</text><line x1="709.8863636363636" y1="395" x2="769.5454545454545" y2="395" stroke="#25231B" stroke-width="2"/><line x1="709.8863636363636" y1="390" x2="709.8863636363636" y2="400" stroke="#25231B" stroke-width="2"/><line x1="769.5454545454545" y1="390" x2="769.5454545454545" y2="400" stroke="#25231B" stroke-width="2"/><line x1="180" y1="425" x2="940" y2="425" stroke="#B9B1A1" stroke-width="0.4" stroke-dasharray="1 3"/><text x="170" y="429" font-size="14" fill="#25231B"
        text-anchor="end" font-family="Courier New, monospace" font-weight="normal"
        letter-spacing="0" font-style="normal">TTS PRODUCER</text><line x1="718.4090909090909" y1="425" x2="922.9545454545454" y2="425" stroke="#25231B" stroke-width="2"/><line x1="718.4090909090909" y1="420" x2="718.4090909090909" y2="430" stroke="#25231B" stroke-width="2"/><line x1="922.9545454545454" y1="420" x2="922.9545454545454" y2="430" stroke="#25231B" stroke-width="2"/><line x1="180" y1="455" x2="940" y2="455" stroke="#B9B1A1" stroke-width="0.4" stroke-dasharray="1 3"/><text x="170" y="459" font-size="14" fill="#25231B"
        text-anchor="end" font-family="Courier New, monospace" font-weight="normal"
        letter-spacing="0" font-style="normal">REPLY AUDIO</text><line x1="769.5454545454545" y1="455" x2="940" y2="455" stroke="#B85425" stroke-width="3"/><line x1="769.5454545454545" y1="450" x2="769.5454545454545" y2="460" stroke="#B85425" stroke-width="3"/><line x1="940" y1="450" x2="940" y2="460" stroke="#B85425" stroke-width="3"/><line x1="180" y1="485" x2="940" y2="485" stroke="#B9B1A1" stroke-width="0.4" stroke-dasharray="1 3"/><text x="170" y="489" font-size="14" fill="#25231B"
        text-anchor="end" font-family="Courier New, monospace" font-weight="normal"
        letter-spacing="0" font-style="normal">BARGEIN WATCH</text><line x1="769.5454545454545" y1="485" x2="940" y2="485" stroke="#25231B" stroke-width="2"/><line x1="769.5454545454545" y1="480" x2="769.5454545454545" y2="490" stroke="#25231B" stroke-width="2"/><line x1="940" y1="480" x2="940" y2="490" stroke="#25231B" stroke-width="2"/><line x1="462.7272727272727" y1="80" x2="462.7272727272727" y2="510" stroke="#B85425" stroke-width="0.6" stroke-dasharray="4 3"/><text x="462.7272727272727" y="558" font-size="12" fill="#B85425"
        text-anchor="middle" font-family="Courier New, monospace" font-weight="normal"
        letter-spacing="1" font-style="normal">SPEECH ENDS</text><line x1="599.090909090909" y1="80" x2="599.090909090909" y2="510" stroke="#B85425" stroke-width="0.6" stroke-dasharray="4 3"/><text x="599.090909090909" y="558" font-size="12" fill="#B85425"
        text-anchor="middle" font-family="Courier New, monospace" font-weight="normal"
        letter-spacing="1" font-style="normal">ENDPOINT CONFIRMED</text><line x1="769.5454545454545" y1="80" x2="769.5454545454545" y2="510" stroke="#B85425" stroke-width="0.6" stroke-dasharray="4 3"/><text x="769.5454545454545" y="558" font-size="12" fill="#B85425"
        text-anchor="middle" font-family="Courier New, monospace" font-weight="normal"
        letter-spacing="1" font-style="normal">FIRST REPLY AUDIO</text><line x1="60" y1="580" x2="90" y2="580" stroke="#25231B" stroke-width="2"/><text x="96" y="584" font-size="14" fill="#25231B"
        text-anchor="start" font-family="Courier New, monospace" font-weight="normal"
        letter-spacing="0" font-style="normal">THREAD ACTIVE</text><line x1="220" y1="580" x2="250" y2="580" stroke="#B85425" stroke-width="3"/><text x="256" y="584" font-size="14" fill="#B85425"
        text-anchor="start" font-family="Courier New, monospace" font-weight="normal"
        letter-spacing="0" font-style="normal">ON THE CRITICAL PATH TO FIRST AUDIO</text>
    <g transform="translate(520,480)">
      <rect x="0" y="0" width="460" height="130" fill="none" stroke="#25231B" stroke-width="1"/>
      <line x1="0" y1="30" x2="460" y2="30" stroke="#25231B" stroke-width="0.7"/>
      <line x1="0" y1="72" x2="460" y2="72" stroke="#25231B" stroke-width="0.7"/>
      <line x1="260" y1="30" x2="260" y2="130" stroke="#25231B" stroke-width="0.7"/>
      <text x="10" y="22" font-size="16" fill="#25231B"
        text-anchor="start" font-family="Courier New, monospace" font-weight="bold"
        letter-spacing="2" font-style="normal">ZEROBIONIC</text>
      <text x="450" y="22" font-size="14" fill="#8A8172"
        text-anchor="end" font-family="Courier New, monospace" font-weight="normal"
        letter-spacing="1" font-style="normal">AF-1 ASSISTIVE ROBOTICS</text>
      <text x="10" y="52" font-size="11" fill="#8A8172"
        text-anchor="start" font-family="Courier New, monospace" font-weight="normal"
        letter-spacing="1" font-style="normal">TITLE</text>
      <text x="10" y="66" font-size="16" fill="#25231B"
        text-anchor="start" font-family="Courier New, monospace" font-weight="bold"
        letter-spacing="1" font-style="normal">TURN TIMING TRACE</text>
      <text x="10" y="92" font-size="11" fill="#8A8172"
        text-anchor="start" font-family="Courier New, monospace" font-weight="normal"
        letter-spacing="1" font-style="normal">DOC</text>
      <text x="10" y="106" font-size="14" fill="#25231B"
        text-anchor="start" font-family="Courier New, monospace" font-weight="normal"
        letter-spacing="0" font-style="normal">ZBR-AF1-SW-001</text>
      <text x="10" y="122" font-size="12" fill="#8A8172"
        text-anchor="start" font-family="Courier New, monospace" font-weight="normal"
        letter-spacing="0" font-style="normal">REV 0.1</text>
      <text x="270" y="52" font-size="11" fill="#8A8172"
        text-anchor="start" font-family="Courier New, monospace" font-weight="normal"
        letter-spacing="1" font-style="normal">FIGURE</text>
      <text x="270" y="66" font-size="21" fill="#25231B"
        text-anchor="start" font-family="Courier New, monospace" font-weight="bold"
        letter-spacing="2" font-style="normal">4</text>
      <text x="270" y="92" font-size="11" fill="#8A8172"
        text-anchor="start" font-family="Courier New, monospace" font-weight="normal"
        letter-spacing="1" font-style="normal">SHEET</text>
      <text x="270" y="106" font-size="14" fill="#25231B"
        text-anchor="start" font-family="Courier New, monospace" font-weight="normal"
        letter-spacing="0" font-style="normal">1 OF 1</text>
      <text x="270" y="122" font-size="12" fill="#8A8172"
        text-anchor="start" font-family="Courier New, monospace" font-weight="normal"
        letter-spacing="0" font-style="normal">SCALE N.T.S.</text>
    </g></svg>